# xmcd CD database file
#
# Track frame offsets:
#	150
#	12373
#	28444
#	43618
#	60541
#	77429
#	92332
#	108480
#	121015
#	138528
#	150532
#	172062
#	189500
#	206114
#	217822
#	232870
#	249468
#	267422
#	282137
#	292761
#	304435
#
# Disc length: 4306 seconds
#
# Revision: 0
# Processed by: cddbd v1.4PL0 Copyright (c) Steve Scherf et al.
# Submitted via: Feurio! 1.63 - http://www.feurio.com
#
DISCID=2110d015
DTITLE=Festival Grupero - 2001
DYEAR=1900
DGENRE=
TTITLE0=Dj Furia - Intromix
TTITLE1=Tucanes De Tijuana - Me Gusta Vivir De Noche
TTITLE2=Intocable - Enseñame A Olvidar
TTITLE3=Temerarios - He Intentado Tanto, Tanto
TTITLE4=Poder Del Norte - A Ellla
TTITLE5=Tigres Del Norte  - De Paisano A Paisano
TTITLE6=Julio Preciado - No Tienes Corazón
TTITLE7=Limite - Por Encima De Todo
TTITLE8=Recodo - Lo Mejor De Mi vida
TTITLE9=Tigres Del Norte - A Mil Por Uno
TTITLE10=Temerarios - Eres Todo Para Mi
TTITLE11=Los Acosta - Palabras
TTITLE12=Julio Preciado - Como Este Loco
TTITLE13=Recodo  - Deja
TTITLE14=Invasores De Nuevo Leon - Que Poca
TTITLE15=Banda Limon - No Regresare
TTITLE16=Juan Gabriel  - Abrasame Muy Fuerte
TTITLE17=Banda Cuisillos  - Linea Ocupada
TTITLE18=Paulina Rubio - El Ultimo Adios
TTITLE19=Banda Maguey - Que Bonito
TTITLE20=Juan Gabriel - Del Altar Hasta La Tumba
EXTD=
EXTT0=
EXTT1=
EXTT2=
EXTT3=
EXTT4=
EXTT5=
EXTT6=
EXTT7=
EXTT8=
EXTT9=
EXTT10=
EXTT11=
EXTT12=
EXTT13=
EXTT14=
EXTT15=
EXTT16=
EXTT17=
EXTT18=
EXTT19=
EXTT20=
PLAYORDER=
